<svg viewBox="0 0 25 25" fill="none" xmlns="http://www.w3.org/2000/svg">
  <path
    d="M5.52344 18.3449C6.86023 20.1397 8.39472 21.7709 9.95422 22.9901C10.1091 23.1112 10.113 23.3465 9.95335 23.4613C8.73291 24.3391 7.44562 24.7016 6.24244 24.3898C3.34766 23.6398 1.91857 19.2404 2.72115 14.1478C2.73627 14.0518 2.86565 14.0325 2.90906 14.1194C3.641 15.5846 4.53831 17.0223 5.52344 18.3449Z"
    fill="currentcolor" />
  <path fill-rule="evenodd" clip-rule="evenodd"
    d="M15.046 23.4607C14.8864 23.3459 14.8902 23.1107 15.0451 22.9896C16.6044 21.7704 18.1386 20.1394 19.4752 18.3449C20.4608 17.0216 21.3585 15.5832 22.0907 14.1171C22.1341 14.0302 22.2635 14.0496 22.2786 14.1455C23.082 19.2391 21.6529 23.6396 18.7577 24.3898C17.5542 24.7017 16.2666 24.339 15.046 23.4607Z"
    fill="currentcolor" />
  <path fill-rule="evenodd" clip-rule="evenodd"
    d="M12.4983 14.461C9.81502 14.461 7.0825 13.9841 4.78001 12.9911C4.60761 12.9168 4.43054 13.095 4.51409 13.2631C5.19234 14.628 6.0365 15.9889 6.98069 17.2564C8.51542 19.3169 10.2618 21.0605 11.9002 22.1557C12.0785 22.2749 12.2838 22.352 12.4983 22.352C12.7126 22.352 12.9178 22.275 13.0959 22.1559C14.7344 21.0607 16.4811 19.317 18.0159 17.2564C18.9599 15.9889 19.804 14.628 20.4822 13.2632C20.5658 13.095 20.3887 12.9168 20.2163 12.9912C17.9139 13.9841 15.1816 14.461 12.4983 14.461ZM4.80171 4.77368C3.79539 6.24829 3.36059 7.92335 3.36195 9.63994C3.36219 9.93974 3.51084 10.2197 3.76048 10.3857C5.97562 11.8589 9.19454 12.64 12.4983 12.64C15.8021 12.64 19.0211 11.8589 21.236 10.3858C21.4855 10.2198 21.6342 9.93987 21.6344 9.64014C21.636 7.9235 21.201 6.24836 20.1946 4.77368C18.4212 2.17496 15.6333 0.5 12.4983 0.5C9.36307 0.5 6.5751 2.17496 4.80171 4.77368ZM12.4992 8.998C15.1782 8.998 17.3498 7.91097 17.3498 6.57C17.3498 5.22904 15.1782 4.142 12.4992 4.142C9.82018 4.142 7.6486 5.22904 7.6486 6.57C7.6486 7.91097 9.82018 8.998 12.4992 8.998Z"
    fill="currentcolor" />
</svg>