<svg width="25" height="25" viewBox="0 0 25 25" fill="none" xmlns="http://www.w3.org/2000/svg">
  <path
    d="M6.02344 18.3449C7.36023 20.1397 8.89472 21.7709 10.4542 22.9901C10.6091 23.1112 10.613 23.3465 10.4533 23.4613C9.23291 24.3391 7.94562 24.7016 6.74244 24.3898C3.84766 23.6398 2.41857 19.2404 3.22115 14.1478C3.23627 14.0518 3.36565 14.0325 3.40906 14.1194C4.141 15.5846 5.03831 17.0223 6.02344 18.3449Z"
    fill="currentcolor" />
  <path fill-rule="evenodd" clip-rule="evenodd"
    d="M15.546 23.4607C15.3864 23.3459 15.3903 23.1107 15.5451 22.9896C17.1044 21.7704 18.6386 20.1394 19.9752 18.3449C20.9609 17.0216 21.8586 15.5832 22.5907 14.1171C22.6341 14.0302 22.7635 14.0496 22.7786 14.1455C23.582 19.2391 22.1529 23.6396 19.2577 24.3898C18.0543 24.7017 16.7667 24.339 15.546 23.4607Z"
    fill="currentcolor" />
  <path fill-rule="evenodd" clip-rule="evenodd"
    d="M12.9984 14.461C10.3151 14.461 7.58261 13.9841 5.28012 12.9911C5.10772 12.9168 4.93066 13.095 5.01421 13.2631C5.69246 14.628 6.53662 15.9889 7.48081 17.2564C9.01553 19.3169 10.7619 21.0605 12.4003 22.1557C12.5786 22.2749 12.7839 22.352 12.9984 22.352V22.352V22.352C13.2127 22.352 13.4179 22.275 13.596 22.1559C15.2345 21.0607 16.9812 19.317 18.516 17.2564C19.46 15.9889 20.3041 14.628 20.9824 13.2632C21.0659 13.095 20.8889 12.9168 20.7165 12.9912C18.414 13.9841 15.6817 14.461 12.9984 14.461ZM5.30183 4.77368C4.29551 6.24829 3.86071 7.92335 3.86206 9.63994C3.8623 9.93974 4.01095 10.2197 4.26059 10.3857C6.47574 11.8589 9.69465 12.64 12.9984 12.64C16.3022 12.64 19.5212 11.8589 21.7361 10.3858C21.9857 10.2198 22.1343 9.93987 22.1346 9.64014C22.1361 7.9235 21.7011 6.24836 20.6947 4.77368C18.9213 2.17496 16.1334 0.5 12.9984 0.5C9.86318 0.5 7.07521 2.17496 5.30183 4.77368ZM12.9993 8.998C15.6783 8.998 17.8499 7.91097 17.8499 6.57C17.8499 5.22904 15.6783 4.142 12.9993 4.142C10.3203 4.142 8.14871 5.22904 8.14871 6.57C8.14871 7.91097 10.3203 8.998 12.9993 8.998Z"
    fill="currentcolor" />

  <style>
    path {
      color: hsl(270deg 62% 55%);
    }

    @media (prefers-color-scheme: dark) {
      path {
        color: hsl(269deg 62% 55%);
      }
    }
  </style>
</svg>